# This file uses centimeters as units for non-parametric coordinates.

mtllib JianTou_Blue.mtl
g default
v -0.006087 -1.361803 0.251016
v 0.006087 -1.361803 0.251016
v -0.718518 0.299061 0.251016
v 0.718518 0.299061 0.251016
v -0.718518 0.299061 -0.251016
v 0.718518 0.299061 -0.251016
v -0.006087 -1.361803 -0.251016
v 0.006087 -1.361803 -0.251016
v 0.359259 0.223535 0.251016
v 0.359259 0.223535 -0.251016
v 0.003043 -1.361803 -0.251016
v 0.003043 -1.361803 0.251016
v -0.000000 0.223535 0.251016
v -0.000000 0.223535 -0.251016
v -0.000000 -1.361803 -0.251016
v -0.000000 -1.361803 0.251016
v -0.359259 0.223535 0.251016
v -0.359259 0.223535 -0.251016
v -0.003043 -1.361803 -0.251016
v -0.003043 -1.361803 0.251016
v 0.489657 2.715362 0.251016
v 0.489657 2.715362 -0.251016
v -0.489657 2.715362 0.251016
v -0.489657 2.715362 -0.251016
v -0.150302 2.510501 0.251016
v -0.000000 2.379705 0.251016
v 0.150302 2.510501 0.251016
v 0.025381 2.476133 0.251016
v -0.025381 2.476133 0.251016
v -0.150302 2.510501 -0.251016
v -0.025381 2.476133 -0.251016
v 0.025381 2.476133 -0.251016
v 0.150302 2.510501 -0.251016
v -0.000000 2.379705 -0.251016
v 0.538889 0.252831 0.251016
v 0.538889 0.252831 -0.251016
v 0.004565 -1.361803 -0.251016
v 0.004565 -1.361803 0.251016
v -0.538889 0.252831 0.251016
v -0.538889 0.252831 -0.251016
v -0.004565 -1.361803 -0.251016
v -0.004565 -1.361803 0.251016
v -0.080774 2.483682 0.251016
v -0.080774 2.483682 -0.251016
v 0.080774 2.483682 0.251016
v 0.080774 2.483682 -0.251016
v -0.373735 2.632265 0.251016
v -0.260599 2.564603 0.251016
v -0.260599 2.564603 -0.251016
v -0.373735 2.632265 -0.251016
v 0.260599 2.564603 0.251016
v 0.373735 2.632265 0.251016
v 0.373735 2.632265 -0.251016
v 0.260599 2.564603 -0.251016
vt 0.375000 0.000000
vt 0.625000 0.000000
vt 0.375000 0.250000
vt 0.625000 0.250000
vt 0.375000 0.500000
vt 0.625000 0.500000
vt 0.375000 0.750000
vt 0.625000 0.750000
vt 0.375000 1.000000
vt 0.625000 1.000000
vt 0.875000 0.000000
vt 0.875000 0.250000
vt 0.125000 0.000000
vt 0.125000 0.250000
vt 0.562500 0.500000
vt 0.562500 0.750000
vt 0.562500 0.000000
vt 0.562500 1.000000
vt 0.500000 0.750000
vt 0.500000 0.000000
vt 0.500000 1.000000
vt 0.437500 0.250000
vt 0.437500 0.750000
vt 0.437500 0.000000
vt 0.437500 1.000000
vt 0.437500 0.250000
vt 0.437500 0.500000
vt 0.509374 0.500000
vt 0.509374 0.250000
vt 0.500000 0.250000
vt 0.500000 0.500000
vt 0.503170 0.251038
vt 0.496830 0.251038
vt 0.496830 0.498962
vt 0.503170 0.498962
vt 0.593750 0.250000
vt 0.593750 0.500000
vt 0.593750 0.750000
vt 0.593750 0.000000
vt 0.593750 1.000000
vt 0.406250 0.250000
vt 0.406250 0.500000
vt 0.406250 0.750000
vt 0.406250 0.000000
vt 0.406250 1.000000
vt 0.493728 0.250519
vt 0.493728 0.499481
vt 0.506272 0.250519
vt 0.506272 0.499481
vt 0.500000 0.250000
vt 0.490626 0.250000
vt 0.562500 0.250000
vt 0.562500 0.250000
vt 0.500000 0.500000
vt 0.455648 0.250000
vt 0.437500 0.500000
vt 0.473359 0.500000
vt 0.490626 0.500000
vt 0.526641 0.250000
vt 0.544353 0.500000
vt 0.562500 0.500000
vt 0.473359 0.250000
vt 0.455648 0.500000
vt 0.544352 0.250000
vt 0.526641 0.500000
vn -0.000000 0.000000 1.000000
vn -0.000000 0.000000 1.000000
vn -0.000000 0.000000 1.000000
vn -0.000000 0.000000 1.000000
vn 0.249241 0.968442 0.000000
vn 0.205730 0.978609 0.000000
vn 0.205730 0.978609 0.000000
vn 0.249241 0.968442 0.000000
vn -0.000000 0.000000 -1.000000
vn -0.000000 0.000000 -1.000000
vn -0.000000 0.000000 -1.000000
vn -0.000000 0.000000 -1.000000
vn 0.000000 -1.000000 0.000000
vn 0.000000 -1.000000 0.000000
vn 0.000000 -1.000000 0.000000
vn 0.000000 -1.000000 0.000000
vn 0.919018 -0.394215 0.000000
vn 0.919018 -0.394215 0.000000
vn 0.919018 -0.394215 0.000000
vn 0.919018 -0.394215 0.000000
vn -0.919018 -0.394215 0.000000
vn -0.919018 -0.394215 0.000000
vn -0.919018 -0.394215 0.000000
vn -0.919018 -0.394215 0.000000
vn -0.160965 0.986960 0.000000
vn -0.205730 0.978609 0.000000
vn -0.205730 0.978609 0.000000
vn -0.160965 0.986960 0.000000
vn 0.000000 -0.000000 -1.000000
vn 0.000000 -0.000000 -1.000000
vn 0.000000 0.000000 -1.000000
vn 0.000000 0.000000 -1.000000
vn 0.000000 -1.000000 0.000000
vn 0.000000 -1.000000 0.000000
vn 0.000000 -1.000000 0.000000
vn 0.000000 -1.000000 0.000000
vn -0.000000 0.000000 1.000000
vn -0.000000 -0.000000 1.000000
vn -0.000000 0.000000 1.000000
vn 0.000000 0.000000 1.000000
vn -0.410363 0.911922 0.000000
vn -0.410363 0.911922 0.000000
vn -0.478523 0.878075 0.000000
vn -0.478523 0.878075 0.000000
vn 0.000000 -0.000000 -1.000000
vn 0.000000 -0.000000 -1.000000
vn 0.000000 -1.000000 0.000000
vn 0.000000 -1.000000 0.000000
vn 0.000000 -0.000000 1.000000
vn 0.000000 -0.000000 1.000000
vn 0.582609 0.812752 0.000000
vn 0.549774 0.835313 0.000000
vn 0.549774 0.835313 0.000000
vn 0.582609 0.812752 0.000000
vn 0.000000 -0.000000 -1.000000
vn -0.000000 -0.000000 -1.000000
vn 0.000000 -1.000000 0.000000
vn 0.000000 -1.000000 0.000000
vn 0.000000 0.000000 1.000000
vn 0.000000 -0.000000 1.000000
vn 0.000000 0.000000 1.000000
vn 0.000000 0.000000 1.000000
vn 0.000000 0.000000 1.000000
vn 0.000000 0.000000 1.000000
vn 0.000000 0.000000 1.000000
vn 0.998634 -0.052259 0.000000
vn 0.998634 -0.052259 0.000000
vn 0.998634 -0.052259 0.000000
vn 0.998634 -0.052259 0.000000
vn 0.000000 0.000000 -1.000000
vn 0.000000 0.000000 -1.000000
vn 0.000000 0.000000 -1.000000
vn 0.000000 0.000000 -1.000000
vn 0.000000 0.000000 -1.000000
vn 0.000000 0.000000 1.000000
vn 0.000000 0.000000 1.000000
vn 0.000000 0.000000 1.000000
vn 0.000000 0.000000 1.000000
vn -0.000000 0.000000 -1.000000
vn -0.000000 0.000000 -1.000000
vn -0.000000 0.000000 -1.000000
vn -0.000000 0.000000 -1.000000
vn -0.998634 -0.052259 0.000000
vn -0.998634 -0.052259 0.000000
vn -0.998634 -0.052259 0.000000
vn -0.998634 -0.052259 0.000000
vn 0.410363 0.911922 0.000000
vn 0.265262 0.964176 0.000000
vn 0.265262 0.964176 0.000000
vn 0.410363 0.911922 0.000000
vn 0.070939 0.997481 0.000000
vn -0.070939 0.997481 0.000000
vn -0.070939 0.997481 0.000000
vn 0.070939 0.997481 0.000000
vn -0.265262 0.964176 0.000000
vn -0.265262 0.964176 0.000000
vn 0.000000 0.000000 1.000000
vn 0.000000 0.000000 1.000000
vn 0.000000 0.000000 1.000000
vn 0.000000 0.000000 1.000000
vn 0.000000 0.000000 -1.000000
vn 0.000000 0.000000 -1.000000
vn 0.000000 0.000000 -1.000000
vn 0.000000 0.000000 -1.000000
vn -0.249241 0.968442 0.000000
vn -0.249241 0.968442 0.000000
vn 0.000000 0.000000 -1.000000
vn 0.000000 0.000000 -1.000000
vn 0.000000 -1.000000 0.000000
vn 0.000000 -1.000000 0.000000
vn 0.000000 0.000000 1.000000
vn 0.000000 0.000000 1.000000
vn 0.160965 0.986960 0.000000
vn 0.160965 0.986960 0.000000
vn 0.478523 0.878075 0.000000
vn 0.478523 0.878075 0.000000
vn -0.549774 0.835313 0.000000
vn -0.549774 0.835313 0.000000
vn -0.582609 0.812752 0.000000
vn -0.582609 0.812752 0.000000
s 1
g pCube1
usemtl phong1SG2
f 1/1/1 42/44/2 39/41/3 3/3/4
s 2
f 3/3/5 39/41/6 40/42/7 5/5/8
s 3
f 5/5/9 40/42/10 41/43/11 7/7/12
s 4
f 7/7/13 41/43/14 42/45/15 1/9/16
s off
f 2/2/17 8/11/18 6/12/19 4/4/20
f 7/13/21 1/1/22 3/3/23 5/14/24
s 5
f 9/52/25 35/36/26 36/37/27 10/15/28
s 3
f 11/16/29 10/15/30 36/37/31 37/38/32
s 4
f 12/18/33 11/16/34 37/38/35 38/40/36
s 1
f 9/52/37 12/17/38 38/39/39 35/36/40
s 9
f 33/28/41 27/29/42 51/59/43 54/65/44
s 3
f 15/19/45 14/54/46 10/15/30 11/16/29
s 4
f 16/21/47 15/19/48 11/16/34 12/18/33
s 1
f 13/50/49 16/20/50 12/17/38 9/52/37
s 9
f 23/26/51 47/55/52 50/63/53 24/56/54
s 3
f 19/23/55 18/27/56 14/54/46 15/19/45
s 4
f 20/25/57 19/23/58 15/19/48 16/21/47
s 1
f 17/22/59 20/24/60 16/20/50 13/50/49
f 13/50/49 9/52/37 21/53/61 52/64/62 51/59/63 27/29/64 26/30/65
s off
f 9/52/66 10/15/67 22/61/68 21/53/69
s 3
f 10/15/30 14/54/46 34/31/70 33/28/71 54/65/72 53/60/73 22/61/74
s 1
f 17/22/59 13/50/49 26/30/65 25/51/75 48/62/76 47/55/77 23/26/78
s 3
f 14/54/46 18/27/56 24/56/79 50/63/80 49/57/81 30/58/82 34/31/70
s off
f 18/27/83 17/22/84 23/26/85 24/56/86
s 9
f 25/51/87 43/46/88 44/47/89 30/58/90
f 29/33/91 28/32/92 32/35/93 31/34/94
f 28/32/92 45/48/95 46/49/96 32/35/93
s 1
f 26/30/65 27/29/64 45/48/97 28/32/98
f 26/30/65 28/32/98 29/33/99
f 26/30/65 29/33/99 43/46/100 25/51/75
s 3
f 34/31/70 30/58/82 44/47/101 31/34/102
f 34/31/70 31/34/102 32/35/103
f 34/31/70 32/35/103 46/49/104 33/28/71
s 5
f 35/36/26 4/4/105 6/6/106 36/37/27
s 3
f 37/38/32 36/37/31 6/6/107 8/8/108
s 4
f 38/40/36 37/38/35 8/8/109 2/10/110
s 1
f 35/36/40 38/39/39 2/2/111 4/4/112
s 2
f 39/41/6 17/22/113 18/27/114 40/42/7
s 3
f 41/43/11 40/42/10 18/27/56 19/23/55
s 4
f 42/45/15 41/43/14 19/23/58 20/25/57
s 1
f 39/41/3 42/44/2 20/24/60 17/22/59
s 9
f 43/46/88 29/33/91 31/34/94 44/47/89
f 45/48/95 27/29/42 33/28/41 46/49/96
f 49/57/115 48/62/116 25/51/87 30/58/90
f 53/60/117 52/64/118 21/53/119 22/61/120
f 47/55/52 48/62/116 49/57/115 50/63/53
f 51/59/43 52/64/118 53/60/117 54/65/44
